# xmcd
#
# Track frame offsets:
#	150
#	8005
#	28610
#	44069
#	63140
#	76987
#	92453
#	110109
#	126858
#	134484
#	150147
#	168330
#	186259
#	202715
#	223012
#	238261
#	254231
#	271005
#	291515
#
# Disc length: 3988 seconds
#
# Revision: 0
# Processed by: cddbd v1.4PL0 Copyright (c) Steve Scherf et al.
# Submitted via: dBpowerAMP V4.0
#
DISCID=0e0f9213
DTITLE=Dow Jonez - The Industrial
DYEAR=2003
DGENRE=Rap
TTITLE0=Outro
TTITLE1=Pull Out
TTITLE2=Less Go
TTITLE3=Official Girl
TTITLE4=The Omen
TTITLE5=The Journal
TTITLE6=Confused
TTITLE7=Cold World
TTITLE8=Nicca What (Skit)
TTITLE9=Some Mo Shit
TTITLE10=Holla
TTITLE11=The Industrial
TTITLE12=Go
TTITLE13=No Tears
TTITLE14=Outta The Dark
TTITLE15=I'm Blazin
TTITLE16=Hate Sebastion
TTITLE17=Love Me/Lose Me
TTITLE18=The Intro
EXTD=
EXTT0=
EXTT1=
EXTT2=
EXTT3=
EXTT4=
EXTT5=
EXTT6=
EXTT7=
EXTT8=
EXTT9=
EXTT10=
EXTT11=
EXTT12=
EXTT13=
EXTT14=
EXTT15=
EXTT16=
EXTT17=
EXTT18=
PLAYORDER=
